<svg version="1.1"
     width="88px"
     height="88px"
     baseProfile="full"
     xmlns="http://www.w3.org/2000/svg">

    <g transform="matrix(1.33333,0,0,1.33333,-1146.44,-398.776)">
        <g transform="matrix(0.404797,0,0,0.404797,-1440.56,-2098.78)">
            <g transform="matrix(0.64652,0,0,0.64652,5076.06,5611.33)">
                <circle cx="1063" cy="607.5" r="124.5"/>
                <path d="M1063,483C1131.71,483 1187.5,538.787 1187.5,607.5C1187.5,676.213 1131.71,732 1063,732C994.287,732 938.5,676.213 938.5,607.5C938.5,538.787 994.287,483 1063,483ZM1063,493.827C1125.74,493.827 1176.67,544.762 1176.67,607.5C1176.67,670.238 1125.74,721.173 1063,721.173C1000.26,721.173 949.327,670.238 949.327,607.5C949.327,544.762 1000.26,493.827 1063,493.827Z"/>
            </g>
            <g transform="matrix(1,0,0,1,-68.0104,266.99)">
                <path d="M5831.19,5757.81C5831.74,5756.59 5834.6,5750.58 5849.33,5720.8C5850.23,5719 5851.33,5716.94 5854.24,5717.8C5856.18,5718.37 5857.26,5720.85 5855.94,5723.49C5835.74,5763.93 5837.92,5760.82 5835.68,5763.67C5834.16,5765.6 5831.78,5765.69 5831.19,5765.68C5830.61,5765.69 5828.22,5765.6 5826.7,5763.67C5824.46,5760.82 5826.65,5763.93 5806.44,5723.49C5805.12,5720.85 5806.2,5718.37 5808.14,5717.8C5811.05,5716.94 5812.16,5719 5813.05,5720.8C5827.78,5750.58 5830.64,5756.59 5831.19,5757.81Z" style="fill:white;"/>
            </g>
        </g>
    </g>

</svg>