<svg version="1.1"
    preserveAspectRatio="xMidYMid meet"
     viewBox="0 0 431 202.5"
     baseProfile="full"
     xmlns="http://www.w3.org/2000/svg">

    <g transform="matrix(1,0,0,1,-1058.91,-198.221)">
        <g transform="matrix(1,0,0,1,-0.452712,-978.718)">
            <g id="slogan">
                <g id="textos">
                    <g transform="matrix(0.726598,0,0,0.726598,635.733,998.065)">
                        <g transform="matrix(191.342,0,0,191.342,573.471,389.686)">
                            <path d="M0.221,-0.022L0.221,0.006C0.174,0.006 0.133,-0.01 0.1,-0.042C0.067,-0.073 0.05,-0.114 0.05,-0.163L0.05,-0.631L0.082,-0.631L0.082,-0.449L0.22,-0.449L0.22,-0.421L0.082,-0.421L0.082,-0.163C0.082,-0.122 0.095,-0.089 0.123,-0.062C0.15,-0.035 0.182,-0.022 0.221,-0.022Z" style="fill:rgb(149,107,81);fill-rule:nonzero;"/>
                        </g>
                        <g transform="matrix(191.342,0,0,191.342,619.585,389.686)">
                            <path d="M0.323,-0.389C0.294,-0.418 0.261,-0.433 0.226,-0.433C0.191,-0.433 0.16,-0.42 0.133,-0.393C0.106,-0.366 0.092,-0.335 0.092,-0.3L0.092,-0L0.06,-0L0.06,-0.45L0.092,-0.45L0.092,-0.383C0.104,-0.406 0.123,-0.424 0.148,-0.439C0.173,-0.454 0.202,-0.461 0.233,-0.461C0.264,-0.461 0.294,-0.45 0.323,-0.429L0.323,-0.389Z" style="fill:rgb(149,107,81);fill-rule:nonzero;"/>
                        </g>
                        <g transform="matrix(191.342,0,0,191.342,686.172,389.686)">
                            <path d="M0.509,-0.45L0.509,-0L0.477,-0L0.477,-0.112C0.458,-0.074 0.43,-0.044 0.393,-0.022C0.356,0 0.316,0.011 0.273,0.011C0.208,0.011 0.152,-0.012 0.105,-0.059C0.058,-0.105 0.035,-0.16 0.035,-0.225C0.035,-0.29 0.058,-0.345 0.105,-0.392C0.152,-0.438 0.208,-0.461 0.273,-0.461C0.316,-0.461 0.357,-0.45 0.396,-0.427C0.435,-0.404 0.462,-0.374 0.477,-0.337L0.477,-0.45L0.509,-0.45ZM0.067,-0.224C0.067,-0.168 0.088,-0.12 0.129,-0.079C0.169,-0.038 0.218,-0.017 0.275,-0.017C0.331,-0.017 0.379,-0.038 0.419,-0.079C0.459,-0.12 0.479,-0.168 0.479,-0.225C0.479,-0.281 0.459,-0.33 0.419,-0.371C0.378,-0.412 0.33,-0.433 0.274,-0.433C0.218,-0.433 0.169,-0.412 0.129,-0.371C0.088,-0.329 0.067,-0.28 0.067,-0.224Z" style="fill:rgb(149,107,81);fill-rule:nonzero;"/>
                        </g>
                        <g transform="matrix(191.342,0,0,191.342,795.045,389.686)">
                            <path d="M0.509,-0.75L0.509,-0L0.477,-0L0.477,-0.109C0.457,-0.072 0.428,-0.043 0.39,-0.022C0.352,0 0.313,0.011 0.273,0.011C0.207,0.011 0.151,-0.012 0.105,-0.059C0.058,-0.105 0.035,-0.16 0.035,-0.225C0.035,-0.29 0.058,-0.345 0.105,-0.392C0.151,-0.438 0.207,-0.461 0.273,-0.461C0.314,-0.461 0.354,-0.45 0.393,-0.428C0.431,-0.406 0.459,-0.377 0.477,-0.34L0.477,-0.75L0.509,-0.75ZM0.067,-0.224C0.067,-0.168 0.087,-0.12 0.127,-0.079C0.167,-0.038 0.215,-0.017 0.272,-0.017C0.328,-0.017 0.377,-0.038 0.418,-0.079C0.459,-0.12 0.479,-0.168 0.479,-0.224C0.479,-0.28 0.459,-0.329 0.418,-0.371C0.377,-0.412 0.328,-0.433 0.272,-0.433C0.216,-0.433 0.168,-0.412 0.128,-0.371C0.087,-0.33 0.067,-0.281 0.067,-0.224Z" style="fill:rgb(149,107,81);fill-rule:nonzero;"/>
                        </g>
                        <g transform="matrix(191.342,0,0,191.342,903.918,389.686)">
                            <path d="M0.422,-0.45L0.454,-0.45L0.454,-0L0.422,-0L0.422,-0.091C0.388,-0.023 0.33,0.011 0.248,0.011C0.192,0.011 0.145,-0.008 0.107,-0.047C0.069,-0.086 0.05,-0.133 0.05,-0.188L0.05,-0.45L0.082,-0.45L0.082,-0.188C0.082,-0.142 0.098,-0.102 0.131,-0.068C0.163,-0.034 0.202,-0.017 0.248,-0.017C0.294,-0.017 0.335,-0.034 0.37,-0.068C0.405,-0.102 0.422,-0.142 0.422,-0.188L0.422,-0.45Z" style="fill:rgb(149,107,81);fill-rule:nonzero;"/>
                        </g>
                        <g transform="matrix(191.342,0,0,191.342,1000.35,389.686)">
                            <path d="M0.278,0.013L0.269,0.013C0.205,0.013 0.15,-0.011 0.104,-0.058C0.058,-0.105 0.035,-0.161 0.035,-0.225C0.035,-0.288 0.058,-0.343 0.105,-0.39C0.152,-0.436 0.209,-0.459 0.277,-0.459C0.345,-0.459 0.403,-0.433 0.451,-0.382L0.451,-0.331C0.43,-0.362 0.404,-0.386 0.373,-0.404C0.341,-0.422 0.308,-0.431 0.273,-0.431C0.218,-0.431 0.169,-0.411 0.129,-0.37C0.088,-0.329 0.067,-0.28 0.067,-0.223C0.067,-0.166 0.088,-0.118 0.129,-0.077C0.169,-0.035 0.218,-0.015 0.273,-0.015C0.308,-0.015 0.341,-0.024 0.373,-0.042C0.404,-0.06 0.43,-0.085 0.451,-0.116L0.451,-0.064C0.404,-0.013 0.347,0.013 0.278,0.013Z" style="fill:rgb(149,107,81);fill-rule:nonzero;"/>
                        </g>
                        <g transform="matrix(191.342,0,0,191.342,1091.43,389.686)">
                            <path d="M0.285,0.012L0.276,0.012C0.213,0.012 0.158,-0.012 0.111,-0.06C0.064,-0.107 0.04,-0.163 0.04,-0.226C0.04,-0.289 0.063,-0.344 0.11,-0.391C0.157,-0.437 0.214,-0.46 0.283,-0.46C0.352,-0.46 0.411,-0.433 0.46,-0.378L0.146,-0.068C0.189,-0.033 0.231,-0.016 0.271,-0.016C0.311,-0.016 0.347,-0.025 0.379,-0.044C0.41,-0.062 0.436,-0.086 0.457,-0.117L0.457,-0.066C0.41,-0.014 0.352,0.012 0.285,0.012ZM0.274,-0.432C0.221,-0.432 0.175,-0.411 0.134,-0.371C0.093,-0.329 0.072,-0.282 0.072,-0.229C0.072,-0.176 0.09,-0.129 0.125,-0.089L0.416,-0.378C0.375,-0.414 0.327,-0.432 0.274,-0.432Z" style="fill:rgb(149,107,81);fill-rule:nonzero;"/>
                        </g>
                    </g>
                    <g transform="matrix(0.721756,0,0,0.721756,635.627,1075.05)">
                        <g transform="matrix(93.4722,0,0,93.4722,581.54,389.686)">
                            <path d="M0.06,0.2L0.06,-0.45L0.092,-0.45L0.092,-0.34C0.11,-0.377 0.138,-0.406 0.177,-0.428C0.215,-0.45 0.255,-0.461 0.296,-0.461C0.362,-0.461 0.418,-0.438 0.465,-0.392C0.511,-0.345 0.534,-0.29 0.534,-0.225C0.534,-0.16 0.511,-0.105 0.465,-0.059C0.418,-0.012 0.362,0.011 0.296,0.011C0.256,0.011 0.217,0 0.179,-0.022C0.141,-0.043 0.112,-0.072 0.092,-0.109L0.092,0.2L0.06,0.2ZM0.09,-0.224C0.09,-0.168 0.111,-0.12 0.152,-0.079C0.193,-0.038 0.241,-0.017 0.298,-0.017C0.354,-0.017 0.402,-0.038 0.442,-0.079C0.482,-0.12 0.502,-0.168 0.502,-0.225C0.502,-0.281 0.482,-0.33 0.442,-0.371C0.401,-0.412 0.353,-0.433 0.297,-0.433C0.241,-0.433 0.193,-0.412 0.152,-0.371C0.111,-0.329 0.09,-0.28 0.09,-0.224Z" style="fill:rgb(149,107,81);fill-rule:nonzero;"/>
                        </g>
                        <g transform="matrix(93.4722,0,0,93.4722,634.725,389.686)">
                            <path d="M0.105,-0.449L0.105,-0L0.073,-0L0.073,-0.449L0.105,-0.449ZM0.089,-0.559C0.07,-0.559 0.06,-0.568 0.06,-0.586C0.06,-0.604 0.07,-0.613 0.089,-0.613C0.108,-0.613 0.118,-0.604 0.118,-0.586C0.118,-0.568 0.108,-0.559 0.089,-0.559Z" style="fill:rgb(149,107,81);fill-rule:nonzero;"/>
                        </g>
                        <g transform="matrix(93.4722,0,0,93.4722,651.363,389.686)">
                            <path d="M0.285,0.012L0.276,0.012C0.213,0.012 0.158,-0.012 0.111,-0.06C0.064,-0.107 0.04,-0.163 0.04,-0.226C0.04,-0.289 0.063,-0.344 0.11,-0.391C0.157,-0.437 0.214,-0.46 0.283,-0.46C0.352,-0.46 0.411,-0.433 0.46,-0.378L0.146,-0.068C0.189,-0.033 0.231,-0.016 0.271,-0.016C0.311,-0.016 0.347,-0.025 0.379,-0.044C0.41,-0.062 0.436,-0.086 0.457,-0.117L0.457,-0.066C0.41,-0.014 0.352,0.012 0.285,0.012ZM0.274,-0.432C0.221,-0.432 0.175,-0.411 0.134,-0.371C0.093,-0.329 0.072,-0.282 0.072,-0.229C0.072,-0.176 0.09,-0.129 0.125,-0.089L0.416,-0.378C0.375,-0.414 0.327,-0.432 0.274,-0.432Z" style="fill:rgb(149,107,81);fill-rule:nonzero;"/>
                        </g>
                        <g transform="matrix(93.4722,0,0,93.4722,697.632,389.686)">
                            <path d="M0.092,-0L0.06,-0L0.06,-0.45L0.092,-0.45L0.092,-0.359C0.126,-0.427 0.184,-0.461 0.266,-0.461C0.322,-0.461 0.369,-0.442 0.407,-0.403C0.445,-0.364 0.464,-0.317 0.464,-0.262L0.464,-0L0.432,-0L0.432,-0.262C0.432,-0.308 0.416,-0.348 0.384,-0.382C0.351,-0.416 0.312,-0.433 0.266,-0.433C0.22,-0.433 0.18,-0.416 0.145,-0.382C0.11,-0.348 0.092,-0.308 0.092,-0.262L0.092,-0Z" style="fill:rgb(149,107,81);fill-rule:nonzero;"/>
                        </g>
                        <g transform="matrix(93.4722,0,0,93.4722,746.611,389.686)">
                            <path d="M0.158,-0.434C0.141,-0.434 0.125,-0.428 0.112,-0.417C0.099,-0.406 0.092,-0.392 0.092,-0.375C0.092,-0.358 0.099,-0.343 0.115,-0.329C0.13,-0.315 0.148,-0.302 0.169,-0.291C0.19,-0.279 0.211,-0.266 0.232,-0.253C0.253,-0.24 0.272,-0.223 0.287,-0.202C0.302,-0.181 0.309,-0.158 0.309,-0.131C0.309,-0.092 0.294,-0.058 0.265,-0.031C0.235,-0.003 0.199,0.011 0.157,0.011C0.13,0.011 0.106,0.005 0.083,-0.007C0.059,-0.018 0.043,-0.034 0.032,-0.053L0.032,-0.101C0.057,-0.045 0.098,-0.017 0.154,-0.017C0.189,-0.017 0.218,-0.028 0.242,-0.049C0.265,-0.07 0.277,-0.094 0.277,-0.121C0.277,-0.147 0.27,-0.169 0.255,-0.187C0.24,-0.205 0.221,-0.22 0.2,-0.233C0.179,-0.246 0.158,-0.258 0.137,-0.271C0.116,-0.283 0.097,-0.298 0.083,-0.316C0.068,-0.333 0.06,-0.354 0.06,-0.378C0.06,-0.401 0.069,-0.421 0.089,-0.438C0.108,-0.454 0.132,-0.462 0.162,-0.462C0.192,-0.462 0.218,-0.45 0.239,-0.427L0.239,-0.386C0.218,-0.418 0.191,-0.434 0.158,-0.434Z" style="fill:rgb(149,107,81);fill-rule:nonzero;"/>
                        </g>
                        <g transform="matrix(93.4722,0,0,93.4722,778.766,389.686)">
                            <path d="M0.509,-0.45L0.509,-0L0.477,-0L0.477,-0.112C0.458,-0.074 0.43,-0.044 0.393,-0.022C0.356,0 0.316,0.011 0.273,0.011C0.208,0.011 0.152,-0.012 0.105,-0.059C0.058,-0.105 0.035,-0.16 0.035,-0.225C0.035,-0.29 0.058,-0.345 0.105,-0.392C0.152,-0.438 0.208,-0.461 0.273,-0.461C0.316,-0.461 0.357,-0.45 0.396,-0.427C0.435,-0.404 0.462,-0.374 0.477,-0.337L0.477,-0.45L0.509,-0.45ZM0.067,-0.224C0.067,-0.168 0.088,-0.12 0.129,-0.079C0.169,-0.038 0.218,-0.017 0.275,-0.017C0.331,-0.017 0.379,-0.038 0.419,-0.079C0.459,-0.12 0.479,-0.168 0.479,-0.225C0.479,-0.281 0.459,-0.33 0.419,-0.371C0.378,-0.412 0.33,-0.433 0.274,-0.433C0.218,-0.433 0.169,-0.412 0.129,-0.371C0.088,-0.329 0.067,-0.28 0.067,-0.224Z" style="fill:rgb(149,107,81);fill-rule:nonzero;"/>
                        </g>
                        <g transform="matrix(93.4722,0,0,93.4722,864.667,389.686)">
                            <path d="M0.024,0.331C0.015,0.328 0.009,0.318 0.008,0.301C0.005,0.292 0.004,0.282 0.003,0.27C0.002,0.258 0.001,0.244 0.001,0.229C0.001,0.215 0.003,0.196 0.008,0.172C0.013,0.147 0.019,0.12 0.028,0.089C0.036,0.058 0.046,0.025 0.058,-0.011C0.07,-0.046 0.083,-0.082 0.098,-0.119C0.116,-0.165 0.132,-0.205 0.145,-0.239C0.158,-0.272 0.169,-0.301 0.179,-0.326C0.188,-0.351 0.195,-0.371 0.201,-0.387C0.206,-0.403 0.211,-0.417 0.214,-0.428C0.217,-0.436 0.221,-0.446 0.226,-0.457C0.231,-0.468 0.238,-0.48 0.245,-0.492C0.252,-0.503 0.259,-0.514 0.266,-0.525C0.273,-0.535 0.28,-0.543 0.286,-0.548C0.309,-0.545 0.331,-0.539 0.352,-0.53C0.373,-0.521 0.385,-0.513 0.39,-0.505C0.381,-0.496 0.37,-0.483 0.358,-0.465C0.346,-0.446 0.334,-0.426 0.323,-0.405C0.312,-0.383 0.301,-0.361 0.292,-0.338C0.283,-0.315 0.276,-0.295 0.271,-0.278C0.278,-0.289 0.286,-0.302 0.297,-0.315C0.308,-0.328 0.324,-0.347 0.346,-0.37C0.371,-0.395 0.394,-0.415 0.416,-0.429C0.437,-0.442 0.456,-0.449 0.472,-0.449C0.497,-0.449 0.518,-0.442 0.535,-0.428C0.551,-0.414 0.559,-0.396 0.559,-0.374C0.559,-0.326 0.551,-0.279 0.535,-0.232C0.519,-0.185 0.496,-0.142 0.466,-0.104C0.455,-0.089 0.441,-0.075 0.426,-0.062C0.411,-0.049 0.395,-0.037 0.378,-0.027C0.361,-0.016 0.345,-0.008 0.329,-0.002C0.313,0.004 0.299,0.007 0.286,0.007C0.274,0.007 0.264,0.005 0.255,-0.001C0.245,-0.006 0.239,-0.012 0.236,-0.019C0.262,-0.034 0.287,-0.056 0.312,-0.083C0.337,-0.11 0.36,-0.142 0.381,-0.178C0.402,-0.213 0.42,-0.252 0.436,-0.293C0.451,-0.334 0.463,-0.376 0.471,-0.419C0.446,-0.406 0.423,-0.391 0.403,-0.376C0.382,-0.36 0.362,-0.339 0.342,-0.314C0.318,-0.285 0.299,-0.261 0.285,-0.243C0.271,-0.225 0.26,-0.21 0.251,-0.197C0.242,-0.184 0.234,-0.172 0.229,-0.162C0.223,-0.151 0.217,-0.137 0.21,-0.121C0.201,-0.1 0.19,-0.071 0.178,-0.037C0.165,-0.001 0.153,0.038 0.14,0.081C0.127,0.124 0.114,0.17 0.101,0.22C0.088,0.269 0.075,0.317 0.063,0.366C0.056,0.365 0.049,0.359 0.044,0.35C0.039,0.344 0.035,0.34 0.033,0.337C0.03,0.334 0.027,0.332 0.024,0.331Z" style="fill:rgb(149,107,81);fill-rule:nonzero;"/>
                        </g>
                        <g transform="matrix(93.4722,0,0,93.4722,911.216,389.686)">
                            <path d="M0.442,-0.404C0.449,-0.404 0.456,-0.403 0.466,-0.401C0.475,-0.398 0.483,-0.395 0.49,-0.392C0.497,-0.388 0.503,-0.384 0.509,-0.38C0.514,-0.376 0.516,-0.372 0.516,-0.369C0.503,-0.341 0.49,-0.313 0.479,-0.285C0.468,-0.256 0.458,-0.229 0.45,-0.203C0.442,-0.177 0.436,-0.153 0.432,-0.13C0.427,-0.107 0.425,-0.088 0.425,-0.071C0.425,-0.052 0.427,-0.037 0.431,-0.025C0.435,-0.012 0.442,-0.003 0.451,0.002C0.443,0.007 0.433,0.012 0.42,0.015C0.407,0.018 0.396,0.02 0.386,0.02C0.35,0.02 0.332,-0.005 0.332,-0.054C0.332,-0.092 0.345,-0.144 0.37,-0.21C0.357,-0.179 0.341,-0.151 0.324,-0.124C0.307,-0.096 0.289,-0.073 0.271,-0.052C0.253,-0.031 0.235,-0.015 0.217,-0.002C0.198,0.012 0.181,0.019 0.166,0.022C0.141,0.021 0.121,0.009 0.106,-0.014C0.091,-0.036 0.083,-0.064 0.083,-0.099C0.083,-0.136 0.091,-0.176 0.107,-0.217C0.123,-0.258 0.143,-0.297 0.169,-0.332C0.194,-0.367 0.221,-0.397 0.25,-0.421C0.279,-0.444 0.308,-0.457 0.335,-0.458C0.342,-0.456 0.349,-0.452 0.358,-0.446C0.366,-0.44 0.374,-0.433 0.382,-0.425C0.389,-0.417 0.396,-0.409 0.401,-0.401C0.406,-0.392 0.409,-0.385 0.41,-0.379C0.383,-0.375 0.356,-0.362 0.328,-0.34C0.299,-0.318 0.274,-0.292 0.251,-0.261C0.228,-0.23 0.209,-0.196 0.194,-0.161C0.179,-0.126 0.172,-0.093 0.172,-0.062C0.172,-0.049 0.177,-0.041 0.186,-0.038C0.205,-0.042 0.228,-0.058 0.253,-0.088C0.278,-0.117 0.309,-0.161 0.345,-0.222C0.352,-0.234 0.359,-0.247 0.368,-0.262C0.376,-0.277 0.384,-0.292 0.393,-0.308C0.402,-0.324 0.41,-0.34 0.419,-0.357C0.427,-0.373 0.435,-0.389 0.442,-0.404Z" style="fill:rgb(149,107,81);fill-rule:nonzero;"/>
                        </g>
                        <g transform="matrix(93.4722,0,0,93.4722,955.148,389.686)">
                            <path d="M0.096,-0.064C0.096,-0.093 0.103,-0.134 0.117,-0.188C0.131,-0.241 0.151,-0.302 0.176,-0.373C0.217,-0.486 0.256,-0.58 0.293,-0.655C0.329,-0.729 0.364,-0.788 0.399,-0.83C0.407,-0.829 0.417,-0.825 0.429,-0.82C0.44,-0.815 0.452,-0.809 0.463,-0.803C0.474,-0.796 0.485,-0.79 0.494,-0.783C0.503,-0.776 0.508,-0.771 0.511,-0.767C0.459,-0.706 0.413,-0.64 0.374,-0.569C0.335,-0.498 0.299,-0.417 0.266,-0.326C0.238,-0.247 0.217,-0.177 0.202,-0.114C0.187,-0.05 0.18,0.002 0.18,0.044L0.18,0.065C0.18,0.068 0.18,0.07 0.181,0.073C0.172,0.072 0.164,0.069 0.157,0.066C0.15,0.063 0.146,0.059 0.144,0.054C0.143,0.051 0.139,0.046 0.133,0.04C0.127,0.033 0.122,0.028 0.117,0.025C0.111,0.021 0.106,0.011 0.102,-0.007C0.098,-0.024 0.096,-0.043 0.096,-0.064Z" style="fill:rgb(149,107,81);fill-rule:nonzero;"/>
                        </g>
                        <g transform="matrix(93.4722,0,0,93.4722,976.833,389.686)">
                            <path d="M0.442,-0.404C0.449,-0.404 0.456,-0.403 0.466,-0.401C0.475,-0.398 0.483,-0.395 0.49,-0.392C0.497,-0.388 0.503,-0.384 0.509,-0.38C0.514,-0.376 0.516,-0.372 0.516,-0.369C0.503,-0.341 0.49,-0.313 0.479,-0.285C0.468,-0.256 0.458,-0.229 0.45,-0.203C0.442,-0.177 0.436,-0.153 0.432,-0.13C0.427,-0.107 0.425,-0.088 0.425,-0.071C0.425,-0.052 0.427,-0.037 0.431,-0.025C0.435,-0.012 0.442,-0.003 0.451,0.002C0.443,0.007 0.433,0.012 0.42,0.015C0.407,0.018 0.396,0.02 0.386,0.02C0.35,0.02 0.332,-0.005 0.332,-0.054C0.332,-0.092 0.345,-0.144 0.37,-0.21C0.357,-0.179 0.341,-0.151 0.324,-0.124C0.307,-0.096 0.289,-0.073 0.271,-0.052C0.253,-0.031 0.235,-0.015 0.217,-0.002C0.198,0.012 0.181,0.019 0.166,0.022C0.141,0.021 0.121,0.009 0.106,-0.014C0.091,-0.036 0.083,-0.064 0.083,-0.099C0.083,-0.136 0.091,-0.176 0.107,-0.217C0.123,-0.258 0.143,-0.297 0.169,-0.332C0.194,-0.367 0.221,-0.397 0.25,-0.421C0.279,-0.444 0.308,-0.457 0.335,-0.458C0.342,-0.456 0.349,-0.452 0.358,-0.446C0.366,-0.44 0.374,-0.433 0.382,-0.425C0.389,-0.417 0.396,-0.409 0.401,-0.401C0.406,-0.392 0.409,-0.385 0.41,-0.379C0.383,-0.375 0.356,-0.362 0.328,-0.34C0.299,-0.318 0.274,-0.292 0.251,-0.261C0.228,-0.23 0.209,-0.196 0.194,-0.161C0.179,-0.126 0.172,-0.093 0.172,-0.062C0.172,-0.049 0.177,-0.041 0.186,-0.038C0.205,-0.042 0.228,-0.058 0.253,-0.088C0.278,-0.117 0.309,-0.161 0.345,-0.222C0.352,-0.234 0.359,-0.247 0.368,-0.262C0.376,-0.277 0.384,-0.292 0.393,-0.308C0.402,-0.324 0.41,-0.34 0.419,-0.357C0.427,-0.373 0.435,-0.389 0.442,-0.404Z" style="fill:rgb(149,107,81);fill-rule:nonzero;"/>
                        </g>
                        <g transform="matrix(93.4722,0,0,93.4722,1020.02,389.686)">
                            <path d="M0.189,0.007C0.22,-0.014 0.25,-0.04 0.279,-0.073C0.308,-0.105 0.335,-0.14 0.359,-0.178C0.383,-0.215 0.403,-0.254 0.42,-0.295C0.437,-0.336 0.448,-0.375 0.454,-0.412C0.454,-0.42 0.45,-0.425 0.441,-0.428C0.432,-0.428 0.419,-0.42 0.403,-0.404C0.386,-0.387 0.368,-0.366 0.349,-0.341C0.329,-0.316 0.309,-0.287 0.289,-0.256C0.268,-0.225 0.25,-0.194 0.233,-0.163C0.216,-0.132 0.202,-0.102 0.191,-0.076C0.179,-0.049 0.172,-0.027 0.171,-0.01C0.164,-0.01 0.159,-0.017 0.154,-0.03C0.153,-0.033 0.15,-0.037 0.147,-0.041C0.144,-0.044 0.138,-0.049 0.131,-0.054C0.128,-0.057 0.124,-0.06 0.121,-0.064C0.118,-0.067 0.115,-0.07 0.114,-0.073C0.111,-0.078 0.11,-0.087 0.11,-0.099C0.11,-0.138 0.115,-0.183 0.125,-0.232C0.135,-0.281 0.148,-0.332 0.165,-0.383C0.181,-0.434 0.2,-0.485 0.222,-0.535C0.244,-0.584 0.267,-0.63 0.291,-0.671C0.314,-0.712 0.338,-0.747 0.362,-0.776C0.386,-0.805 0.409,-0.824 0.43,-0.833C0.437,-0.831 0.445,-0.828 0.454,-0.823C0.463,-0.818 0.473,-0.813 0.482,-0.807C0.491,-0.801 0.5,-0.795 0.509,-0.789C0.517,-0.783 0.523,-0.778 0.527,-0.773C0.454,-0.714 0.39,-0.638 0.337,-0.545C0.283,-0.452 0.239,-0.342 0.205,-0.215C0.224,-0.25 0.245,-0.283 0.268,-0.316C0.291,-0.348 0.315,-0.376 0.338,-0.401C0.361,-0.426 0.383,-0.445 0.404,-0.46C0.425,-0.475 0.442,-0.482 0.456,-0.482C0.467,-0.479 0.477,-0.475 0.487,-0.468C0.497,-0.461 0.506,-0.453 0.514,-0.444C0.522,-0.434 0.529,-0.424 0.534,-0.413C0.539,-0.402 0.543,-0.39 0.544,-0.378C0.543,-0.35 0.539,-0.32 0.53,-0.289C0.521,-0.257 0.509,-0.226 0.494,-0.195C0.478,-0.164 0.462,-0.135 0.443,-0.107C0.424,-0.079 0.404,-0.055 0.383,-0.034C0.362,-0.013 0.341,0.004 0.32,0.017C0.299,0.03 0.279,0.036 0.26,0.036C0.252,0.036 0.244,0.035 0.236,0.034C0.227,0.032 0.22,0.029 0.213,0.027C0.206,0.023 0.2,0.02 0.196,0.017C0.191,0.014 0.189,0.01 0.189,0.007Z" style="fill:rgb(149,107,81);fill-rule:nonzero;"/>
                        </g>
                        <g transform="matrix(93.4722,0,0,93.4722,1064.14,389.686)">
                            <path d="M0.073,-0.02C0.076,-0.039 0.082,-0.065 0.091,-0.097C0.099,-0.128 0.109,-0.162 0.12,-0.198C0.131,-0.233 0.143,-0.269 0.156,-0.305C0.169,-0.341 0.181,-0.373 0.193,-0.402C0.202,-0.423 0.209,-0.439 0.216,-0.451C0.223,-0.462 0.23,-0.472 0.238,-0.48C0.247,-0.479 0.257,-0.476 0.267,-0.473C0.277,-0.47 0.287,-0.466 0.296,-0.461C0.305,-0.456 0.314,-0.452 0.321,-0.447C0.328,-0.442 0.334,-0.437 0.338,-0.432C0.32,-0.411 0.304,-0.386 0.291,-0.359C0.277,-0.332 0.263,-0.297 0.249,-0.254C0.285,-0.286 0.317,-0.317 0.345,-0.346C0.372,-0.375 0.398,-0.408 0.422,-0.444C0.426,-0.447 0.433,-0.449 0.443,-0.449C0.452,-0.449 0.461,-0.448 0.47,-0.445C0.479,-0.442 0.485,-0.437 0.488,-0.432C0.476,-0.4 0.47,-0.368 0.47,-0.337C0.47,-0.308 0.474,-0.286 0.483,-0.271C0.482,-0.267 0.478,-0.259 0.47,-0.248C0.461,-0.237 0.452,-0.226 0.442,-0.216C0.424,-0.225 0.408,-0.238 0.394,-0.255C0.38,-0.271 0.37,-0.289 0.363,-0.308C0.332,-0.286 0.305,-0.265 0.283,-0.244C0.261,-0.223 0.242,-0.199 0.227,-0.174C0.211,-0.148 0.198,-0.118 0.187,-0.085C0.175,-0.052 0.165,-0.012 0.155,0.034C0.149,0.033 0.142,0.031 0.134,0.028C0.125,0.024 0.117,0.019 0.109,0.014C0.1,0.009 0.093,0.003 0.086,-0.003C0.079,-0.009 0.075,-0.015 0.073,-0.02Z" style="fill:rgb(149,107,81);fill-rule:nonzero;"/>
                        </g>
                        <g transform="matrix(93.4722,0,0,93.4722,1101.81,389.686)">
                            <path d="M0.442,-0.404C0.449,-0.404 0.456,-0.403 0.466,-0.401C0.475,-0.398 0.483,-0.395 0.49,-0.392C0.497,-0.388 0.503,-0.384 0.509,-0.38C0.514,-0.376 0.516,-0.372 0.516,-0.369C0.503,-0.341 0.49,-0.313 0.479,-0.285C0.468,-0.256 0.458,-0.229 0.45,-0.203C0.442,-0.177 0.436,-0.153 0.432,-0.13C0.427,-0.107 0.425,-0.088 0.425,-0.071C0.425,-0.052 0.427,-0.037 0.431,-0.025C0.435,-0.012 0.442,-0.003 0.451,0.002C0.443,0.007 0.433,0.012 0.42,0.015C0.407,0.018 0.396,0.02 0.386,0.02C0.35,0.02 0.332,-0.005 0.332,-0.054C0.332,-0.092 0.345,-0.144 0.37,-0.21C0.357,-0.179 0.341,-0.151 0.324,-0.124C0.307,-0.096 0.289,-0.073 0.271,-0.052C0.253,-0.031 0.235,-0.015 0.217,-0.002C0.198,0.012 0.181,0.019 0.166,0.022C0.141,0.021 0.121,0.009 0.106,-0.014C0.091,-0.036 0.083,-0.064 0.083,-0.099C0.083,-0.136 0.091,-0.176 0.107,-0.217C0.123,-0.258 0.143,-0.297 0.169,-0.332C0.194,-0.367 0.221,-0.397 0.25,-0.421C0.279,-0.444 0.308,-0.457 0.335,-0.458C0.342,-0.456 0.349,-0.452 0.358,-0.446C0.366,-0.44 0.374,-0.433 0.382,-0.425C0.389,-0.417 0.396,-0.409 0.401,-0.401C0.406,-0.392 0.409,-0.385 0.41,-0.379C0.383,-0.375 0.356,-0.362 0.328,-0.34C0.299,-0.318 0.274,-0.292 0.251,-0.261C0.228,-0.23 0.209,-0.196 0.194,-0.161C0.179,-0.126 0.172,-0.093 0.172,-0.062C0.172,-0.049 0.177,-0.041 0.186,-0.038C0.205,-0.042 0.228,-0.058 0.253,-0.088C0.278,-0.117 0.309,-0.161 0.345,-0.222C0.352,-0.234 0.359,-0.247 0.368,-0.262C0.376,-0.277 0.384,-0.292 0.393,-0.308C0.402,-0.324 0.41,-0.34 0.419,-0.357C0.427,-0.373 0.435,-0.389 0.442,-0.404Z" style="fill:rgb(149,107,81);fill-rule:nonzero;"/>
                        </g>
                        <g transform="matrix(93.4722,0,0,93.4722,1145.74,389.686)">
                            <path d="M0.442,-0.398C0.441,-0.385 0.439,-0.372 0.436,-0.359C0.432,-0.345 0.427,-0.333 0.422,-0.322C0.417,-0.311 0.411,-0.301 0.405,-0.294C0.399,-0.287 0.393,-0.283 0.388,-0.283C0.381,-0.284 0.376,-0.289 0.375,-0.298C0.375,-0.3 0.376,-0.303 0.378,-0.308C0.379,-0.312 0.381,-0.317 0.383,-0.322C0.385,-0.327 0.387,-0.333 0.389,-0.338C0.39,-0.343 0.391,-0.348 0.391,-0.352C0.391,-0.361 0.389,-0.369 0.385,-0.376C0.38,-0.382 0.374,-0.385 0.367,-0.385C0.34,-0.385 0.32,-0.368 0.306,-0.335C0.292,-0.302 0.285,-0.253 0.285,-0.188C0.285,-0.181 0.285,-0.177 0.286,-0.176C0.3,-0.177 0.313,-0.177 0.324,-0.178C0.335,-0.178 0.345,-0.178 0.356,-0.178C0.357,-0.177 0.357,-0.174 0.357,-0.17C0.357,-0.164 0.356,-0.16 0.353,-0.157C0.338,-0.154 0.326,-0.151 0.317,-0.149C0.308,-0.146 0.301,-0.144 0.296,-0.142C0.291,-0.14 0.289,-0.138 0.288,-0.136C0.287,-0.133 0.286,-0.13 0.286,-0.126C0.286,-0.121 0.286,-0.115 0.287,-0.11C0.287,-0.105 0.287,-0.098 0.287,-0.09C0.287,-0.034 0.272,0.011 0.242,0.045C0.211,0.079 0.169,0.099 0.115,0.104C0.106,0.103 0.096,0.101 0.086,0.096C0.076,0.091 0.067,0.085 0.058,0.078C0.048,0.071 0.041,0.063 0.034,0.054C0.027,0.045 0.023,0.035 0.02,0.026C0.02,0.001 0.025,-0.024 0.036,-0.047C0.047,-0.07 0.061,-0.09 0.08,-0.108C0.098,-0.125 0.119,-0.139 0.145,-0.151C0.169,-0.162 0.197,-0.168 0.226,-0.17C0.226,-0.187 0.224,-0.203 0.221,-0.219C0.218,-0.235 0.214,-0.251 0.211,-0.266C0.207,-0.281 0.203,-0.295 0.2,-0.31C0.197,-0.324 0.195,-0.338 0.195,-0.352C0.195,-0.37 0.199,-0.388 0.206,-0.406C0.213,-0.423 0.223,-0.44 0.235,-0.455C0.247,-0.47 0.261,-0.482 0.277,-0.493C0.293,-0.504 0.31,-0.511 0.327,-0.515C0.334,-0.513 0.344,-0.507 0.357,-0.498C0.369,-0.488 0.381,-0.477 0.393,-0.465C0.405,-0.453 0.416,-0.441 0.425,-0.429C0.434,-0.416 0.44,-0.406 0.442,-0.398ZM0.112,0.058C0.128,0.051 0.143,0.042 0.158,0.029C0.172,0.016 0.184,0.002 0.195,-0.014C0.206,-0.03 0.214,-0.047 0.221,-0.065C0.227,-0.083 0.23,-0.101 0.23,-0.118C0.217,-0.116 0.202,-0.11 0.186,-0.1C0.17,-0.089 0.155,-0.077 0.141,-0.063C0.127,-0.048 0.115,-0.033 0.106,-0.018C0.097,-0.003 0.092,0.011 0.092,0.022C0.092,0.037 0.099,0.049 0.112,0.058Z" style="fill:rgb(149,107,81);fill-rule:nonzero;"/>
                        </g>
                    </g>
                </g>
            </g>
        </g>
    </g>
</svg>
