<svg version="1.1"
     width="89px"
     height="232px"
     baseProfile="full"
     xmlns="http://www.w3.org/2000/svg">>
    <g transform="matrix(1.33333,0,0,1.33333,-1132.11,-72.5847)">
        <g transform="matrix(1,0,0,1,90.9205,0)">
            <g transform="matrix(1.01079,0,0,1.01079,8.34344,-0.37347)">
                <circle cx="774.981" cy="86.479" r="32.252" style="fill:rgb(184,179,167);"/>
            </g>
            <g transform="matrix(0.922861,0,0,0.922861,76.4881,7.23067)">
                <circle cx="774.981" cy="86.479" r="32.252" style="fill:white;"/>
            </g>
        </g>
        <g transform="matrix(1,0,0,1,90.9205,107.746)">
            <g transform="matrix(1.01079,0,0,1.01079,8.34344,-0.37347)">
                <circle cx="774.981" cy="86.479" r="32.252" style="fill:rgb(249,148,23);"/>
            </g>
            <g transform="matrix(0.922861,0,0,0.922861,76.4881,7.23067)">
                <circle cx="774.981" cy="86.479" r="32.252" style="fill:white;"/>
            </g>
        </g>
        <g>
            <g transform="matrix(0.669358,0,0,0.669358,849.086,103.245)">
                <path d="M50.11,115.717L0,86.789L0,28.928L50.11,0L100.219,28.928L100.219,86.789L50.11,115.717ZM50.11,105.571L8.787,81.715L8.787,34.002L50.11,10.146L91.432,34.002L91.432,81.715L50.11,105.571Z" style="fill:rgb(38,173,228);"/>
            </g>
            <g transform="matrix(0.554223,0,0,0.554223,854.855,109.906)">
                <path d="M50.11,115.717L0,86.789L0,28.928L50.11,0L100.219,28.928L100.219,86.789L50.11,115.717Z" style="fill:white;"/>
            </g>
        </g>
        <g transform="matrix(0.539777,0,0,0.52421,377.816,-1183.09)">
            <path d="M935.902,2440.88L936.977,2438.93C939.177,2440.14 941.312,2440.74 943.383,2440.74C944.763,2440.74 946.023,2440.49 947.162,2439.99C948.301,2439.49 949.2,2438.8 949.857,2437.94C950.515,2437.07 950.844,2436.13 950.844,2435.12C950.844,2434.11 950.544,2433.22 949.945,2432.44C949.346,2431.66 948.266,2430.75 946.703,2429.72C945.18,2428.71 944.252,2428.09 943.92,2427.85C943.588,2427.62 943.155,2427.28 942.621,2426.85C941.671,2426.02 941.195,2425.04 941.195,2423.91C941.195,2421.86 942.523,2419.89 945.18,2418.01C945.922,2417.47 946.771,2416.99 947.728,2416.56C948.686,2416.13 949.626,2415.81 950.551,2415.59C951.475,2415.36 952.341,2415.25 953.148,2415.25C954.333,2415.25 955.264,2415.47 955.941,2415.92C956.618,2416.36 956.957,2416.98 956.957,2417.77C956.957,2418.75 956.547,2419.79 955.727,2420.91C954.906,2422.02 953.786,2423.05 952.367,2423.98L950.805,2423.1C951.768,2422.45 952.582,2421.8 953.246,2421.15C953.91,2420.5 954.424,2419.87 954.789,2419.25C955.154,2418.63 955.336,2418.07 955.336,2417.56C955.336,2417.21 955.238,2416.91 955.043,2416.66C954.848,2416.41 954.568,2416.22 954.203,2416.09C953.839,2415.96 953.383,2415.9 952.836,2415.9C951.82,2415.9 950.73,2416.1 949.564,2416.49C948.399,2416.89 947.302,2417.41 946.273,2418.07C943.982,2419.51 942.836,2421.12 942.836,2422.89C942.836,2423.38 942.973,2423.85 943.246,2424.29C943.52,2424.72 943.998,2425.21 944.682,2425.76C945.365,2426.31 946.365,2427.01 947.68,2427.87C948.656,2428.51 949.395,2429.03 949.896,2429.43C950.398,2429.84 950.811,2430.26 951.137,2430.7C951.866,2431.63 952.23,2432.66 952.23,2433.81C952.23,2434.69 951.999,2435.59 951.537,2436.5C951.075,2437.41 950.421,2438.27 949.574,2439.06C947.595,2440.92 944.848,2441.85 941.332,2441.85C939.04,2441.85 937.23,2441.53 935.902,2440.88Z" style="fill:rgb(184,179,167);fill-rule:nonzero;stroke:rgb(177,173,161);stroke-width:0.76px;"/>
        </g>
        <g transform="matrix(30.5133,0,0,30.5133,867.721,96.9533)">
            <path d="M0.163,0L0.162,-0.001C0.161,-0.001 0.16,-0.001 0.159,0C0.144,0 0.131,-0.005 0.12,-0.016C0.109,-0.027 0.104,-0.04 0.104,-0.055L0.104,-0.645C0.104,-0.66 0.109,-0.673 0.12,-0.684C0.131,-0.695 0.144,-0.7 0.159,-0.7L0.301,-0.7C0.354,-0.7 0.399,-0.682 0.436,-0.645C0.472,-0.607 0.491,-0.565 0.491,-0.518C0.491,-0.471 0.478,-0.43 0.453,-0.396C0.484,-0.377 0.508,-0.351 0.527,-0.319C0.545,-0.287 0.554,-0.252 0.554,-0.215C0.554,-0.156 0.533,-0.105 0.492,-0.063C0.45,-0.021 0.399,0 0.34,0L0.163,0ZM0.215,-0.589L0.215,-0.429L0.301,-0.429C0.323,-0.429 0.342,-0.437 0.357,-0.453C0.372,-0.469 0.38,-0.488 0.38,-0.51C0.38,-0.532 0.372,-0.551 0.357,-0.566C0.342,-0.581 0.323,-0.589 0.301,-0.589L0.215,-0.589ZM0.215,-0.318L0.215,-0.111L0.34,-0.111C0.369,-0.112 0.393,-0.122 0.413,-0.142C0.433,-0.162 0.443,-0.186 0.443,-0.215C0.443,-0.244 0.433,-0.268 0.413,-0.288C0.393,-0.307 0.369,-0.317 0.34,-0.318L0.215,-0.318Z" style="fill:rgb(184,179,167);fill-rule:nonzero;"/>
        </g>
        <g transform="matrix(0.206183,0,0,0.206183,-437.636,-982.95)">
            <path d="M6370.02,5669.82L6372.74,5656.11L6396.93,5661.97L6401.69,5642.32L6414.64,5645.46L6409.88,5665.1L6418.33,5667.15L6423.06,5647.63L6436.01,5650.77L6431.28,5670.29C6431.28,5670.29 6468.13,5679.46 6452.19,5708.13C6448.55,5714.68 6440.55,5716.49 6440.55,5716.49C6440.55,5716.49 6453.88,5720.88 6453.01,5735.03C6450.5,5776.01 6409.13,5761.74 6409.13,5761.74L6404.21,5782.04L6391.27,5778.9L6396.18,5758.6L6387.73,5756.55L6382.84,5776.73L6369.89,5773.6L6374.78,5753.42L6350.59,5747.56L6356.2,5732.66C6356.2,5732.66 6369.23,5737.52 6370.52,5732.94C6374.57,5718.62 6379.54,5698.23 6384.13,5676.26C6385.22,5671.08 6370.02,5669.82 6370.02,5669.82ZM6397.59,5714.99C6397.59,5714.99 6428.12,5720.41 6428.48,5732.58C6429.14,5754.12 6391.12,5741.73 6391.12,5741.73L6397.59,5714.99ZM6406.46,5678.71C6406.46,5678.71 6431.87,5682.94 6432.2,5694C6432.8,5713.59 6400.57,5703.02 6400.57,5703.02L6406.46,5678.71Z" style="fill:rgb(249,148,23);"/>
        </g>
        <path d="M881.432,195.383C881.432,195.383 887.725,196.501 887.801,199.009C887.935,203.452 880.096,200.896 880.096,200.896L881.432,195.383ZM883.26,187.903C883.26,187.903 888.498,188.775 888.567,191.055C888.69,195.094 882.046,192.915 882.046,192.915L883.26,187.903Z" style="fill:white;"/>
    </g>
</svg>
